<?xml version="1.0" encoding="UTF-8" standalone="no"?>
<!-- Created with Inkscape (http://www.inkscape.org/) -->

<svg
   width="52.001873mm"
   height="19.39263mm"
   viewBox="0 0 52.001873 19.39263"
   version="1.1"
   id="svg1"
   inkscape:version="1.3.2 (091e20ef0f, 2023-11-25, custom)"
   sodipodi:docname="logo.svg"
   xmlns:inkscape="http://www.inkscape.org/namespaces/inkscape"
   xmlns:sodipodi="http://sodipodi.sourceforge.net/DTD/sodipodi-0.dtd"
   xmlns="http://www.w3.org/2000/svg"
   xmlns:svg="http://www.w3.org/2000/svg">
  <sodipodi:namedview
     id="namedview1"
     pagecolor="#ffffff"
     bordercolor="#666666"
     borderopacity="1.0"
     inkscape:showpageshadow="2"
     inkscape:pageopacity="0.0"
     inkscape:pagecheckerboard="0"
     inkscape:deskcolor="#d1d1d1"
     inkscape:document-units="mm"
     inkscape:zoom="3.2213244"
     inkscape:cx="109.89269"
     inkscape:cy="121.99951"
     inkscape:window-width="1920"
     inkscape:window-height="1131"
     inkscape:window-x="0"
     inkscape:window-y="0"
     inkscape:window-maximized="1"
     inkscape:current-layer="text4-8-0" />
  <defs
     id="defs1">
    <marker
       style="overflow:visible"
       id="marker5-2"
       refX="0"
       refY="0"
       orient="auto-start-reverse"
       inkscape:stockid="Wide, rounded arrow"
       markerWidth="1"
       markerHeight="1"
       viewBox="0 0 1 1"
       inkscape:isstock="true"
       inkscape:collect="always"
       preserveAspectRatio="xMidYMid">
      <path
         style="fill:none;stroke:context-stroke;stroke-width:1;stroke-linecap:round"
         d="M 3,-3 0,0 3,3"
         transform="rotate(180,0.125,0)"
         sodipodi:nodetypes="ccc"
         id="path5-8" />
    </marker>
  </defs>
  <g
     inkscape:label="Layer 1"
     inkscape:groupmode="layer"
     id="layer1"
     transform="translate(-56.885415,-73.818753)">
    <path
       fill="none"
       stroke="#02063b"
       paint-order="fill stroke markers"
       d="m 60.463266,74.15125 c 0.144429,0.17663 -0.0018,0.38902 -0.18072,0.50831 -0.351486,0.27141 -0.839113,0.42716 -1.119318,0.75594 -0.147494,0.17417 -0.0082,0.38863 0.170448,0.5083 0.352588,0.27492 0.845537,0.43059 1.127006,0.76246 0.14664,0.17487 0.0055,0.38875 -0.173368,0.5083 -0.352733,0.27447 -0.892191,0.4017 -1.126852,0.76112 -0.149232,0.2286 0.09898,0.43385 0.303004,0.56408 0.324739,0.21499 0.838231,0.34774 1.058554,0.6467 0.134703,0.199 -0.06596,0.40652 -0.254831,0.52786 -0.345182,0.24968 -0.80799,0.40438 -1.067588,0.72336 -0.143719,0.18265 0.01765,0.39507 0.199716,0.51482 0.350768,0.26602 0.833719,0.42148 1.107464,0.74943 0.144438,0.17662 -0.0018,0.389 -0.18072,0.50829 -0.351486,0.27142 -0.839113,0.42717 -1.119309,0.75594 -0.147494,0.17417 -0.0082,0.38864 0.170439,0.50831 0.258671,0.15019 0.603022,0.4204 0.591725,0.62951 0.03058,0.22604 -0.04896,0.60327 -0.189169,0.90249 -0.168789,0.39662 -0.01139,0.79751 -0.01139,1.59143"
       stroke-linecap="round"
       stroke-linejoin="round"
       stroke-miterlimit="10"
       stroke-width="56.0707"
       id="path1-2-0-3"
       style="stroke-width:0.664994;stroke-dasharray:none;marker-end:url(#marker5-2)"
       sodipodi:nodetypes="ccccccscccccccccccc"
       inkscape:export-filename="general_tropospheric/logo.png"
       inkscape:export-xdpi="300"
       inkscape:export-ydpi="300" />
    <g
       id="text4-8-0"
       style="font-size:5.41682px;line-height:1.25;letter-spacing:0.332171px;stroke-width:1.77557"
       transform="scale(0.98741188,1.0127486)"
       aria-label="GENERAL&#10;TROPOSPHERIC">
      <path
         style="font-family:CPMono_v07;-inkscape-font-specification:CPMono_v07"
         d="m 67.880494,83.987509 h -1.343371 v 0.758355 h 0.395428 v 0.265424 c 0,0.13542 -0.05958,0.178755 -0.205839,0.178755 h -0.476681 c -0.162504,0 -0.243756,-0.07042 -0.243756,-0.205839 v -1.489626 c 0,-0.13542 0.08125,-0.205839 0.243756,-0.205839 h 0.411679 c 0.162504,0 0.243757,0.07042 0.243757,0.205839 v 0.243757 l 0.975027,-0.243757 v -0.178755 c 0,-0.650018 -0.379177,-0.920859 -1.029196,-0.920859 h -0.736687 c -0.650019,0 -1.083364,0.270841 -1.083364,0.920859 v 1.863386 c 0,0.650019 0.427929,0.92086 1.083364,0.92086 h 0.682519 c 0.650019,0 1.083364,-0.270841 1.083364,-0.92086 z m 3.739349,2.11256 v -0.910026 h -1.679214 v -0.552516 h 1.332538 v -0.877524 h -1.332538 v -0.471264 h 1.679214 v -0.893775 h -2.654242 v 3.705105 z m 4.031857,0 v -3.705105 h -0.975028 v 1.901304 h -0.04333 l -1.023779,-1.901304 h -0.93711 v 3.705105 h 0.975028 v -1.820052 h 0.04333 l 1.012946,1.820052 z m 3.674347,0 v -0.910026 h -1.679214 v -0.552516 h 1.332538 v -0.877524 h -1.332538 v -0.471264 h 1.679214 v -0.893775 h -2.654242 v 3.705105 z m 3.977689,0 v -0.893776 l -0.482097,-0.601267 c 0.25459,-0.11917 0.482097,-0.411678 0.482097,-0.752938 v -0.536265 c 0,-0.650018 -0.438763,-0.920859 -1.088781,-0.920859 h -1.733382 v 3.705105 H 81.4566 V 84.8542 h 0.417095 l 0.455013,0.5796 v 0.666269 z M 81.4566,83.976675 v -0.687936 h 0.628351 c 0.162505,0 0.243757,0.07042 0.243757,0.205839 v 0.276258 c 0,0.135421 -0.08125,0.205839 -0.243757,0.205839 z m 4.768545,-1.581711 h -1.007528 l -1.072531,2.713827 v 0.991278 h 0.975028 v -0.845024 -0.01625 h 1.202534 v 0.01625 0.845024 h 0.975028 v -0.991278 z m -0.520014,1.115865 h 0.0325 l 0.292508,0.861274 h -0.622934 z m 5.331893,2.58924 V 85.190043 H 89.141137 V 82.394964 H 88.16611 v 3.705105 z"
         id="path1" />
      <path
         style="font-family:CPMono_v07;-inkscape-font-specification:CPMono_v07"
         d="m 68.026748,88.647098 v -0.893775 h -3.141755 v 0.893775 h 1.083364 v 2.81133 h 0.975027 v -2.81133 z m 3.717682,2.81133 v -0.893776 l -0.482097,-0.601267 c 0.25459,-0.11917 0.482097,-0.411678 0.482097,-0.752938 v -0.536265 c 0,-0.650018 -0.438763,-0.920859 -1.088781,-0.920859 h -1.733382 v 3.705105 h 0.975027 v -1.245869 h 0.417095 l 0.455013,0.5796 v 0.666269 z m -1.847136,-2.123394 v -0.687936 h 0.628351 c 0.162505,0 0.243757,0.07042 0.243757,0.205839 v 0.276258 c 0,0.13542 -0.08125,0.205839 -0.243757,0.205839 z m 4.671042,2.123394 c 0.650018,0 1.083364,-0.270841 1.083364,-0.92086 v -1.863386 c 0,-0.650018 -0.433346,-0.920859 -1.083364,-0.920859 h -0.812523 c -0.650018,0 -1.083364,0.270841 -1.083364,0.920859 v 1.863386 c 0,0.650019 0.433346,0.92086 1.083364,0.92086 z m -0.677102,-0.910026 c -0.162505,0 -0.243757,-0.07042 -0.243757,-0.205839 v -1.489626 c 0,-0.13542 0.08125,-0.205839 0.243757,-0.205839 h 0.541682 c 0.162504,0 0.243756,0.07042 0.243756,0.205839 v 1.489626 c 0,0.13542 -0.08125,0.205839 -0.243756,0.205839 z m 5.613568,-1.87422 c 0,-0.650018 -0.433345,-0.920859 -1.083364,-0.920859 h -1.679214 v 3.705105 h 0.975028 v -1.245869 h 0.704186 c 0.650019,0 1.083364,-0.270841 1.083364,-0.920859 z m -0.975027,0.400845 c 0,0.13542 -0.08125,0.260007 -0.243757,0.260007 h -0.568766 v -0.687936 h 0.568766 c 0.162504,0 0.243757,0.07042 0.243757,0.205839 z m 3.744765,2.383401 c 0.650018,0 1.083364,-0.270841 1.083364,-0.92086 v -1.863386 c 0,-0.650018 -0.433346,-0.920859 -1.083364,-0.920859 h -0.812523 c -0.650018,0 -1.083364,0.270841 -1.083364,0.920859 v 1.863386 c 0,0.650019 0.433346,0.92086 1.083364,0.92086 z m -0.677103,-0.910026 c -0.162504,0 -0.243756,-0.07042 -0.243756,-0.205839 v -1.489626 c 0,-0.13542 0.08125,-0.205839 0.243756,-0.205839 h 0.541682 c 0.162505,0 0.243757,0.07042 0.243757,0.205839 v 1.489626 c 0,0.13542 -0.08125,0.205839 -0.243757,0.205839 z m 3.690599,-0.352094 -0.975028,0.243757 v 0.0975 c 0,0.650019 0.433346,0.92086 1.083364,0.92086 h 0.59585 c 0.650019,0 1.137532,-0.297926 1.137532,-0.947944 v -0.427929 c 0,-0.650018 -0.384594,-0.942526 -1.034612,-0.942526 h -0.56335 c -0.162504,0 -0.243756,-0.07042 -0.243756,-0.20584 v -0.08125 c 0,-0.13542 0.08125,-0.205839 0.243756,-0.205839 h 0.379178 c 0.162504,0 0.243757,0.07042 0.243757,0.205839 v 0.135421 l 0.975027,-0.243757 v -0.07042 c 0,-0.650018 -0.433345,-0.920859 -1.083364,-0.920859 h -0.59585 c -0.650018,0 -1.137532,0.297925 -1.137532,0.947943 v 0.362927 c 0,0.650018 0.379177,0.95336 1.029196,0.95336 h 0.568766 c 0.162504,0 0.243757,0.07042 0.243757,0.20584 v 0.11917 c 0,0.13542 -0.08125,0.205839 -0.243757,0.205839 h -0.379178 c -0.162504,0 -0.243756,-0.07042 -0.243756,-0.205839 z m 5.776072,-1.522126 c 0,-0.650018 -0.433345,-0.920859 -1.083364,-0.920859 H 88.30153 v 3.705105 h 0.975028 v -1.245869 h 0.704186 c 0.650019,0 1.083364,-0.270841 1.083364,-0.920859 z m -0.975027,0.400845 c 0,0.13542 -0.08125,0.260007 -0.243757,0.260007 h -0.568766 v -0.687936 h 0.568766 c 0.162504,0 0.243757,0.07042 0.243757,0.205839 z m 4.811879,2.383401 v -3.705105 h -0.975028 v 1.392122 H 92.92382 v -1.392122 h -0.975027 v 3.705105 H 92.92382 V 90.02297 h 1.002112 v 1.435458 z m 3.690597,0 v -0.910026 h -1.679214 v -0.552516 h 1.332537 v -0.877525 h -1.332537 v -0.471263 h 1.679214 v -0.893775 h -2.654242 v 3.705105 z m 3.977693,0 v -0.893776 l -0.4821,-0.601267 c 0.25459,-0.11917 0.4821,-0.411678 0.4821,-0.752938 v -0.536265 c 0,-0.650018 -0.43877,-0.920859 -1.08879,-0.920859 h -1.733378 v 3.705105 h 0.975028 v -1.245869 h 0.41709 l 0.45502,0.5796 v 0.666269 z m -1.84714,-2.123394 v -0.687936 h 0.62835 c 0.16251,0 0.24376,0.07042 0.24376,0.205839 v 0.276258 c 0,0.13542 -0.0813,0.205839 -0.24376,0.205839 z m 2.85641,2.123394 h 2.81674 v -0.910026 h -0.92085 v -1.901304 h 0.86669 v -0.893775 h -2.70841 v 0.893775 h 0.86669 v 1.901304 h -0.92086 z m 6.69693,-1.316288 -0.97503,-0.270841 v 0.471264 c 0,0.13542 -0.0812,0.205839 -0.24376,0.205839 h -0.43334 c -0.16251,0 -0.24376,-0.07042 -0.24376,-0.205839 v -1.489626 c 0,-0.13542 0.0812,-0.205839 0.24376,-0.205839 h 0.43334 c 0.16251,0 0.24376,0.07042 0.24376,0.205839 v 0.406262 l 0.97503,-0.243757 v -0.34126 c 0,-0.650018 -0.43335,-0.920859 -1.08337,-0.920859 h -0.70418 c -0.65002,0 -1.08337,0.270841 -1.08337,0.920859 v 1.863386 c 0,0.650019 0.43335,0.92086 1.08337,0.92086 h 0.70418 c 0.65002,0 1.08337,-0.270841 1.08337,-0.92086 z"
         id="path3" />
    </g>
    <circle
       style="fill:none;fill-opacity:1;stroke:#000000;stroke-width:0.749997;stroke-opacity:1"
       id="path2"
       cx="59.784092"
       cy="90.312706"
       r="2.5236785" />
  </g>
</svg>
